<svg width="145" height="146" viewBox="0 0 145 146" fill="none" xmlns="http://www.w3.org/2000/svg">
<g clip-path="url(#clip0_34_258)">
<path fill-rule="evenodd" clip-rule="evenodd" d="M43.4546 12.2842C43.8647 6.83585 48.5836 2.75382 53.9945 3.16669L127.889 8.80503C133.3 9.21791 137.354 13.9693 136.944 19.4176L128.716 128.746C128.306 134.195 123.587 138.277 118.176 137.864L111.018 137.318C109.871 137.888 108.594 138.24 107.244 138.316L34.1074 142.433C28.7279 142.736 24.1232 138.59 23.8224 133.174L17.8139 24.967C17.5132 19.5504 21.6303 14.9138 27.0098 14.611L43.3487 13.6912L43.4546 12.2842ZM46.8639 17.3013L47.2199 12.5715C47.4723 9.21698 50.3777 6.7037 53.7092 6.95791L127.604 12.5962C130.935 12.8504 133.431 15.7759 133.179 19.1303L124.951 128.459C124.698 131.814 121.793 134.327 118.461 134.073L110.134 133.437C109.251 134.062 108.19 134.454 107.033 134.519L33.8966 138.637C30.5993 138.822 27.7769 136.281 27.5925 132.961L21.5841 24.7547C21.3997 21.4347 23.9233 18.5928 27.2206 18.4071L46.8639 17.3013Z" fill="#B0ADAB"/>
<path d="M21.5841 24.7546C21.3998 21.4346 23.9233 18.5927 27.2206 18.4071L100.357 14.2898C103.654 14.1042 106.477 16.6451 106.661 19.9652L112.669 128.172C112.854 131.492 110.33 134.334 107.033 134.519L33.8966 138.637C30.5993 138.822 27.7769 136.281 27.5925 132.961L21.5841 24.7546Z" fill="#D6D6D6"/>
<path d="M47.2199 12.5714C47.4723 9.2169 50.3777 6.70363 53.7092 6.95783L127.604 12.5962C130.935 12.8504 133.431 15.7758 133.179 19.1303L124.951 128.459C124.698 131.814 121.793 134.327 118.461 134.073L44.5668 128.434C41.2353 128.18 38.7393 125.255 38.9917 121.9L47.2199 12.5714Z" fill="#FFFAF8"/>
<path d="M54.2459 19.9797C54.4668 17.0445 56.8728 14.835 59.6198 15.0446L120.551 19.6938C123.298 19.9034 125.345 22.4527 125.124 25.3879L117.925 121.051C117.704 123.986 115.298 126.195 112.551 125.986L51.6202 121.336C48.8732 121.127 46.8253 118.578 47.0463 115.642L54.2459 19.9797Z" fill="#E68F71"/>
<path d="M86.867 99.4346C93.8977 94.074 105.374 100.847 107.593 71.3737C107.696 69.9986 107.676 68.6428 107.541 67.3175C90.4751 60.342 70.8912 62.1571 63.2325 63.9366C62.9011 65.2264 62.6781 66.5636 62.5746 67.9387C60.3564 97.4118 72.7158 92.4577 78.8638 98.8239C80.6817 100.706 82.0869 101.846 82.6577 101.89C83.2284 101.933 84.7882 101.02 86.867 99.4346Z" fill="#443321"/>
<path fill-rule="evenodd" clip-rule="evenodd" d="M101.304 70.7998C102.815 70.9063 103.954 72.2259 103.848 73.7473C103.756 75.0759 103.45 79.1624 101.997 82.7785C101.428 84.1922 99.8295 84.8744 98.4255 84.3022C97.0215 83.73 96.344 82.1201 96.9123 80.7064C98.0086 77.9793 98.2853 74.6778 98.3767 73.3619C98.4824 71.8405 99.7929 70.6934 101.304 70.7998Z" fill="#E68F71"/>
<ellipse cx="2.79171" cy="2.81074" rx="2.79171" ry="2.81074" transform="matrix(0.997016 0.0771891 -0.0761411 0.997097 93.0457 84.8011)" fill="#E68F71"/>
<path fill-rule="evenodd" clip-rule="evenodd" d="M87.1107 47.2966C81.8322 44.5493 70.2536 40.8557 64.2296 47.1795C58.1119 53.6016 60.9477 59.5926 63.1304 61.7853C66.0312 60.8337 74.6685 59.1556 86.1424 59.9958C97.6239 60.9038 105.921 63.8766 108.649 65.2585C111.134 63.422 114.835 57.9298 109.748 50.6527C104.739 43.4872 92.7401 45.3816 87.1107 47.2966Z" fill="#FDD849"/>
<path d="M88.0977 48.1089C87.6712 48.7954 86.6482 48.7173 86.3293 47.9739L84.0298 42.613C83.7337 41.9227 84.2751 41.1652 85.0237 41.2223L90.3989 41.6325C91.1475 41.6896 91.5693 42.5206 91.1733 43.1581L88.0977 48.1089Z" fill="#FDD849"/>
<path fill-rule="evenodd" clip-rule="evenodd" d="M84.903 57.3647C76.7511 55.5504 68.269 57.262 65.0799 58.3364C64.7121 58.4603 64.3141 58.2605 64.191 57.8902C64.068 57.5198 64.2664 57.1191 64.6342 56.9952C67.9831 55.8669 76.7333 54.0981 85.2061 55.9838C85.5848 56.068 85.824 56.4455 85.7403 56.8268C85.6566 57.2082 85.2817 57.449 84.903 57.3647Z" fill="#E68F71"/>
<path fill-rule="evenodd" clip-rule="evenodd" d="M81.6246 54.1732C75.5146 52.9837 69.2095 54.2788 66.8535 55.0666C66.4854 55.1897 66.0879 54.989 65.9657 54.6184C65.8434 54.2477 66.0427 53.8475 66.4108 53.7244C68.9206 52.8852 75.4779 51.536 81.8912 52.7847C82.272 52.8588 82.521 53.2298 82.4474 53.6132C82.3738 53.9966 82.0054 54.2474 81.6246 54.1732Z" fill="#E68F71"/>
<path fill-rule="evenodd" clip-rule="evenodd" d="M78.4152 50.9593C74.1616 50.1312 69.763 51.0344 68.1283 51.581C67.7602 51.7041 67.3627 51.5034 67.2405 51.1328C67.1182 50.7621 67.3175 50.3619 67.6856 50.2388C69.4742 49.6408 74.1249 48.6836 78.6819 49.5708C79.0627 49.6449 79.3117 50.0159 79.2381 50.3993C79.1644 50.7828 78.796 51.0335 78.4152 50.9593Z" fill="#E68F71"/>
</g>
<defs>
<clipPath id="clip0_34_258">
<rect width="145" height="146" fill="white"/>
</clipPath>
</defs>
</svg>
